<svg width="23" height="24" viewBox="0 0 23 24" fill="none" xmlns="http://www.w3.org/2000/svg">
<path d="M7.87488 7.58304C7.84739 7.35086 7.83325 7.11459 7.83325 6.87502C7.83325 3.58432 10.5009 0.916687 13.7916 0.916687C17.0823 0.916687 19.7499 3.58432 19.7499 6.87502V9.16669C19.7499 12.7105 16.8771 15.5834 13.3333 15.5834H6.91659H6.45825C4.18008 15.5834 2.33325 13.7365 2.33325 11.4584C2.33325 9.18018 4.18008 7.33335 6.45825 7.33335C6.95597 7.33335 7.4331 7.4215 7.87488 7.58304ZM7.87488 7.58304C8.47212 7.80537 9.84992 8.61669 10.5833 10.0834" stroke="white" stroke-width="1.5" stroke-linecap="round" stroke-linejoin="round"/>
<path d="M11.0416 22.9167L11.0416 21.8691M16.0833 19.25L16.0832 20.5221M5.99992 19.25L5.99992 20.0731" stroke="#918D97" stroke-width="1.5" stroke-linecap="round" stroke-linejoin="round"/>
</svg>
