<svg width="181" height="59" viewBox="0 0 181 59" fill="none" xmlns="http://www.w3.org/2000/svg">
<g clip-path="url(#clip0_2365_2358)">
<path d="M51.7339 46.0808C55.7404 46.0808 55.7404 44.4355 55.7404 39.8045L55.7404 15.9382C55.7404 11.3097 55.7404 9.66191 51.7339 9.66191V8.42798L64.7562 8.42798C70.3978 8.42798 73.7188 12.4395 73.7188 18.4594C73.7188 24.9414 69.7123 30.0853 64.3881 30.0853C63.017 30.0853 61.4886 29.7781 59.9601 29.5191L59.9601 39.807C59.9601 44.4355 59.9601 46.0833 63.9666 46.0833V47.3173H51.7364V46.0833L51.7339 46.0808ZM63.0678 27.9221C66.7569 27.9221 68.9734 23.8065 68.9734 19.0231C68.9734 14.2397 66.6528 10.8451 62.9637 10.8451C62.3315 10.8451 61.1712 10.9466 59.9576 11.3605V27.3585C61.1712 27.7698 62.3823 27.9247 63.0678 27.9247V27.9221Z" fill="white"/>
<path d="M75.2345 46.0807C78.134 46.0807 78.134 44.4355 78.134 39.8044V16.9639C78.134 12.8483 77.87 11.0482 75.2878 12.4877L74.6556 11.4087L80.6654 8.0141H81.719V39.8044C81.719 44.433 81.719 46.0807 84.6185 46.0807V47.3147H75.2345V46.0807Z" fill="white"/>
<path d="M86.2104 40.9876C86.2104 34.9169 91.7454 32.1926 96.6481 29.6206C96.6481 25.7106 96.4907 22.1104 93.2738 22.1104C90.8491 22.1104 90.5851 24.3726 90.6384 26.843C90.6384 28.077 90.2169 29.6714 88.7926 29.6714C87.4749 29.6714 86.9468 28.2826 86.9468 26.843C86.9468 23.3443 89.7396 20.1554 93.906 20.1554C99.6009 20.1554 100.286 23.6541 100.286 29.0545V41.6045C100.286 43.1482 100.601 43.9201 101.129 43.9201C101.498 43.9201 101.919 43.5595 102.658 42.5313L103.501 43.3539C102.605 44.9991 100.919 47.6752 98.8621 47.6752C97.0163 47.6752 96.7014 45.4638 96.7014 43.5595C95.0664 45.3597 93.2738 47.726 90.745 47.726C87.5815 47.726 86.2104 44.0749 86.2104 40.9876ZM92.5909 44.2298C93.6978 44.2298 95.0156 43.2523 96.6507 41.4014V31.629C92.959 33.6855 89.9021 35.4349 89.9021 39.5505C89.9021 41.8127 90.8517 44.2324 92.5909 44.2324V44.2298Z" fill="white"/>
<path d="M115.721 46.0807C118.62 46.0807 118.62 44.4355 118.62 39.8044V30.5981C118.62 28.4375 118.516 23.9105 115.614 23.9105C114.139 23.9105 112.608 25.0937 111.026 27.5107V39.8044C111.026 44.4329 111.026 46.0807 113.926 46.0807V47.3146H104.542V46.0807C107.441 46.0807 107.441 44.4355 107.441 39.8044V29.1052C107.441 24.9896 107.177 23.1894 104.595 24.629L103.963 23.5474L109.973 20.1528H111.026V25.4516C112.397 23.291 114.137 20.1528 117.247 20.1528C121.307 20.1528 122.203 25.5532 122.203 30.131V39.8019C122.203 44.4304 122.203 46.0782 125.102 46.0782V47.3121H115.718V46.0782L115.721 46.0807Z" fill="white"/>
<path d="M127.156 40.6296V22.7807H124.15V21.6483C126.892 20.2087 128.685 16.0931 129.896 11.9774H130.739V20.5667H135.116V22.7782H130.739V40.0101C130.739 41.6046 130.739 44.2273 132.478 44.2273C133.638 44.2273 134.374 43.0441 134.692 41.9118H135.641C135.06 44.7935 133.374 47.7234 130.843 47.7234C128.101 47.7234 127.154 44.2755 127.154 40.6245L127.156 40.6296Z" fill="white"/>
<path d="M137.53 46.0808C140.43 46.0808 140.43 44.4355 140.43 39.8044V29.1053C140.43 24.9896 140.166 23.1895 137.584 24.6291L136.952 23.5475L142.961 20.1529H144.015V39.8019C144.015 44.4304 144.015 46.0782 146.914 46.0782V47.3122H137.53V46.0782V46.0808ZM141.748 11.4417C143.223 11.4417 144.383 12.5309 144.383 13.9197C144.383 15.3085 143.223 16.3978 141.748 16.3978C140.272 16.3978 139.112 15.3085 139.112 13.9197C139.112 12.5309 140.272 11.4417 141.748 11.4417Z" fill="white"/>
<path d="M149.009 46.0808C152.594 46.0808 152.594 44.4356 152.594 39.8045V22.8798H148.902V20.5642H152.594C152.594 13.9274 154.229 6.57202 159.817 6.57202C163.034 6.57202 165.774 8.93833 165.774 11.5103C165.774 12.6427 165.246 13.9782 163.981 13.9782C162.61 13.9782 161.978 12.3837 161.61 11.4062C161.082 10.0682 160.292 8.83424 158.921 8.83424C155.811 8.83424 156.179 14.75 156.179 20.5617H160.978V22.8772L156.179 22.8772V39.8019C156.179 44.4305 156.179 46.0783 160.186 46.0783V47.3122H149.009V46.0783V46.0808Z" fill="white"/>
<path d="M163.545 56.3179C163.545 54.7742 164.598 53.4895 166.076 53.4895C167.447 53.4895 167.868 54.5711 168.922 54.5711C170.557 54.5711 171.189 51.9991 172.982 45.8269L166.812 27.7191C165.337 23.2962 164.388 21.8033 162.806 21.8033V20.5693H172.136V21.8033C168.13 21.8033 169.08 23.2962 170.608 27.6683L174.721 39.6014L178.149 27.7698C179.466 23.347 180.259 21.8033 176.252 21.8033V20.5693H183.95V21.8033C182.368 21.8033 181.579 23.347 180.259 27.7698L173.193 51.7909C172.243 55.0307 169.976 59.5576 166.812 59.5576C165.073 59.5576 163.545 58.2196 163.545 56.3179Z" fill="white"/>
<path d="M20.2501 27.0433L20.2501 27.0432C22.2397 23.2646 25.0932 18.2616 28.0875 14.375C29.5851 12.4311 31.1132 10.7728 32.5812 9.68605C34.0527 8.59675 35.4388 8.0999 36.6643 8.4251L36.6644 8.42513C37.8009 8.72573 38.8099 9.73471 39.1105 10.8711C39.1763 11.122 39.2105 11.3853 39.2105 11.6538C39.2105 12.8784 38.4997 14.2373 37.2932 15.6558C36.0897 17.0707 34.4088 18.5265 32.5039 19.9429C28.6947 22.7753 24.0082 25.437 20.5051 27.2857L20.505 27.2857L19.9745 27.566L20.2501 27.0433Z" fill="white" stroke="white" stroke-width="0.253896"/>
<path d="M-0.113396 11.3648C-0.097067 11.1748 -0.0649492 10.9886 -0.01779 10.8069L-0.0176431 10.8064C0.306313 9.58167 1.38424 8.50369 2.60644 8.17971M-0.113396 11.3648L2.60644 8.17971C2.60644 8.17971 2.60644 8.17971 2.60644 8.17971M-0.113396 11.3648L-0.128498 11.3497L-0.128498 11.6564C-0.128498 12.9745 0.631969 14.3932 1.85137 15.8261C3.07383 17.2627 4.77361 18.7323 6.6878 20.1546C10.5168 22.9996 15.2219 25.6685 18.7327 27.5179L19.6086 27.9799L19.9714 28.1714L19.7801 27.8085L19.3129 26.9224L19.3129 26.9223C17.3189 23.1413 14.4553 18.1242 11.4469 14.2207C9.94311 12.2695 8.39837 10.5902 6.90325 9.48305C5.4116 8.37847 3.94398 7.82511 2.60644 8.17971M-0.113396 11.3648L2.60644 8.17971" fill="white" stroke="white" stroke-width="0.253896"/>
<path d="M2.67153 47.3126L2.67143 47.3126C1.53515 47.012 0.52863 46.0032 0.227885 44.8692C0.16213 44.6184 0.127935 44.355 0.127935 44.0839C0.127935 42.8586 0.839267 41.499 2.04684 40.0797C3.25137 38.6639 4.93372 37.2073 6.8402 35.79C10.6526 32.956 15.3429 30.2931 18.8485 28.4444L19.3652 28.1727L19.0934 28.6893C19.0934 28.6894 19.0934 28.6894 19.0933 28.6894C17.1012 32.4694 14.2458 37.4735 11.2502 41.3611C9.752 43.3055 8.22349 44.9642 6.7551 46.0512C5.28325 47.1408 3.89709 47.6378 2.67153 47.3126Z" fill="white" stroke="white" stroke-width="0.253896"/>
<path d="M36.6643 47.3101L36.6642 47.3101C35.4393 47.6347 34.0539 47.1378 32.5829 46.0489C31.1154 44.9626 29.5878 43.3052 28.0906 41.3624C25.0969 37.478 22.2433 32.4782 20.2525 28.7021L20.2524 28.702L19.9724 28.1721L20.4973 28.4495L20.5251 28.4642L20.5277 28.4642C24.029 30.311 28.7021 32.9648 32.5022 35.7891C34.4076 37.2052 36.0889 38.6609 37.2926 40.0759C38.4995 41.4944 39.2103 42.8536 39.2103 44.0788C39.2103 44.3474 39.1761 44.6133 39.1104 44.8641C38.8097 46.0005 37.8007 47.0095 36.6643 47.3101Z" fill="white" stroke="white" stroke-width="0.253896"/>
<path d="M29.1484 27.8701L9.8371 27.8701" stroke="white" stroke-width="2.96532" stroke-miterlimit="10" stroke-linecap="round"/>
<path d="M19.6705 18.0342L19.6705 37.7035" stroke="white" stroke-width="2.96532" stroke-miterlimit="10" stroke-linecap="round"/>
</g>
<defs>
<clipPath id="clip0_2365_2358">
<rect width="181" height="58.825" fill="white" transform="translate(0 0.0875244)"/>
</clipPath>
</defs>
</svg>
