<svg width="23" height="22" viewBox="0 0 23 22" fill="none" xmlns="http://www.w3.org/2000/svg">
<path d="M15.1676 15.2403L14.6506 14.6969L15.1676 15.2403ZM7.83242 15.2403L8.34938 14.6969L7.83242 15.2403ZM9.17594 16.5584L8.57958 17.0132L8.57958 17.0132L9.17594 16.5584ZM9.63874 17.6587L8.89719 17.771L9.63874 17.6587ZM13.8241 16.5584L14.4204 17.0132L14.4204 17.0132L13.8241 16.5584ZM13.3613 17.6587L14.1028 17.771L13.3613 17.6587ZM10.2167 20.4684L9.8245 21.1077H9.8245L10.2167 20.4684ZM9.81404 20.0406L10.473 19.6826L10.473 19.6826L9.81404 20.0406ZM13.186 20.0406L12.527 19.6826L12.527 19.6826L13.186 20.0406ZM12.7833 20.4684L12.3912 19.8291L12.7833 20.4684ZM6.75 10.8854C6.75 8.02875 8.91883 5.79169 11.5 5.79169V4.29169C8.00603 4.29169 5.25 7.28729 5.25 10.8854H6.75ZM11.5 5.79169C14.0812 5.79169 16.25 8.02875 16.25 10.8854H17.75C17.75 7.28729 14.994 4.29169 11.5 4.29169V5.79169ZM16.25 10.8854C16.25 12.4094 15.6271 13.7679 14.6506 14.6969L15.6845 15.7837C16.9574 14.5727 17.75 12.822 17.75 10.8854H16.25ZM8.34938 14.6969C7.37287 13.7679 6.75 12.4094 6.75 10.8854H5.25C5.25 12.822 6.04262 14.5727 7.31546 15.7837L8.34938 14.6969ZM13.3333 17.9271H9.66667V19.4271H13.3333V17.9271ZM7.31546 15.7837C7.72789 16.1761 8.03218 16.4656 8.24753 16.6754C8.3552 16.7802 8.43636 16.861 8.49549 16.9222C8.56003 16.989 8.5803 17.0141 8.57958 17.0132L9.77229 16.1035C9.67612 15.9774 9.49978 15.8011 9.29418 15.6009C9.07092 15.3834 8.7588 15.0865 8.34938 14.6969L7.31546 15.7837ZM10.4167 18.6771C10.4167 18.1564 10.419 17.8022 10.3803 17.5464L8.89719 17.771C8.91431 17.8841 8.91667 18.0859 8.91667 18.6771H10.4167ZM8.57958 17.0132C8.77317 17.267 8.80052 17.3147 8.81609 17.3518C8.83249 17.3908 8.8483 17.4481 8.89719 17.771L10.3803 17.5464C10.3391 17.2745 10.302 17.0157 10.1988 16.7702C10.0947 16.5228 9.93569 16.3178 9.77229 16.1035L8.57958 17.0132ZM14.6506 14.6969C14.2412 15.0865 13.9291 15.3834 13.7058 15.6009C13.5002 15.8011 13.3239 15.9774 13.2277 16.1035L14.4204 17.0132C14.4197 17.0141 14.44 16.989 14.5045 16.9222C14.5636 16.861 14.6448 16.7802 14.7525 16.6754C14.9678 16.4656 15.2721 16.1761 15.6845 15.7837L14.6506 14.6969ZM14.0833 18.6771C14.0833 18.0859 14.0857 17.8841 14.1028 17.771L12.6197 17.5464C12.581 17.8022 12.5833 18.1564 12.5833 18.6771H14.0833ZM13.2277 16.1035C13.0643 16.3178 12.9053 16.5228 12.8012 16.7702C12.698 17.0157 12.6609 17.2745 12.6197 17.5464L14.1028 17.771C14.1517 17.4481 14.1675 17.3907 14.1839 17.3518C14.1995 17.3147 14.2268 17.267 14.4204 17.0132L13.2277 16.1035ZM11.5 19.875C11.1427 19.875 10.9279 19.8742 10.7689 19.8589C10.6956 19.8518 10.6538 19.8432 10.6305 19.8367C10.6196 19.8336 10.6136 19.8313 10.6112 19.8302C10.6099 19.8297 10.6093 19.8294 10.609 19.8293C10.6089 19.8292 10.6089 19.8292 10.6089 19.8291C10.6088 19.8291 10.6088 19.8291 10.6088 19.8291L9.8245 21.1077C10.0886 21.2698 10.3655 21.327 10.6251 21.352C10.8727 21.3758 11.172 21.375 11.5 21.375V19.875ZM8.91667 18.6771C8.91667 19.0282 8.91603 19.3388 8.9378 19.594C8.96032 19.858 9.01099 20.1336 9.15505 20.3987L10.473 19.6826C10.4697 19.6764 10.4467 19.6345 10.4324 19.4665C10.4173 19.2898 10.4167 19.0542 10.4167 18.6771H8.91667ZM10.6088 19.8291C10.5572 19.7975 10.5088 19.7484 10.473 19.6826L9.15505 20.3987C9.31234 20.6882 9.54169 20.9342 9.8245 21.1077L10.6088 19.8291ZM12.5833 18.6771C12.5833 19.0542 12.5827 19.2898 12.5676 19.4665C12.5533 19.6345 12.5303 19.6764 12.527 19.6826L13.845 20.3987C13.989 20.1336 14.0397 19.858 14.0622 19.594C14.084 19.3388 14.0833 19.0282 14.0833 18.6771H12.5833ZM11.5 21.375C11.828 21.375 12.1273 21.3758 12.3749 21.352C12.6345 21.327 12.9114 21.2698 13.1755 21.1077L12.3912 19.8291C12.3912 19.8291 12.3912 19.8291 12.3912 19.8291C12.3911 19.8292 12.3911 19.8292 12.391 19.8293C12.3907 19.8294 12.3901 19.8297 12.3888 19.8302C12.3864 19.8313 12.3804 19.8336 12.3695 19.8367C12.3463 19.8432 12.3044 19.8518 12.2311 19.8589C12.0721 19.8742 11.8573 19.875 11.5 19.875V21.375ZM12.527 19.6826C12.4912 19.7484 12.4428 19.7975 12.3912 19.8291L13.1755 21.1077C13.4583 20.9342 13.6877 20.6882 13.845 20.3987L12.527 19.6826Z" fill="white"/>
<path d="M11.4999 1.375V2.29167M3.24992 10.5417H2.33325M5.54158 4.58333L4.9915 4.03324M17.4583 4.58333L18.0085 4.03324M20.6666 10.5417H19.7499" stroke="#918D97" stroke-width="1.5" stroke-linecap="round" stroke-linejoin="round"/>
</svg>
