<svg width="32" height="32" viewBox="0 0 32 32" fill="none" xmlns="http://www.w3.org/2000/svg">
<path d="M16.1081 18.6663C21.9494 18.6084 26.6668 13.8552 26.6668 8.0002C26.6668 7.48302 26.63 6.97444 26.5589 6.47693C20.7176 6.53484 16.0002 11.288 16.0002 17.1431C16.0002 17.6602 16.037 18.1688 16.1081 18.6663Z" fill="white"/>
<path d="M15.8922 18.6663C10.0509 18.6084 5.3335 13.8552 5.3335 8.0002C5.3335 7.48302 5.3703 6.97444 5.44144 6.47693C11.2828 6.53484 16.0002 11.288 16.0002 17.1431C16.0002 17.6602 15.9634 18.1688 15.8922 18.6663Z" fill="white"/>
<path d="M16.0002 17.3334V28M16.0002 17.1431C16.0002 11.288 20.7176 6.53484 26.5589 6.47693C26.63 6.97444 26.6668 7.48302 26.6668 8.0002C26.6668 13.8552 21.9494 18.6084 16.1081 18.6663C16.037 18.1688 16.0002 17.6602 16.0002 17.1431ZM16.0002 17.1431C16.0002 11.288 11.2828 6.53484 5.44144 6.47693C5.3703 6.97444 5.3335 7.48302 5.3335 8.0002C5.3335 13.8552 10.0509 18.6084 15.8922 18.6663C15.9634 18.1688 16.0002 17.6602 16.0002 17.1431Z" stroke="white" stroke-width="2.32143" stroke-linecap="round" stroke-linejoin="round"/>
</svg>
