<svg width="20" height="20" viewBox="0 0 20 20" fill="none" xmlns="http://www.w3.org/2000/svg">
<path d="M18.2495 10.8333C18.7097 10.8333 19.0828 10.4602 19.0828 10C19.0828 9.53976 18.7097 9.16667 18.2495 9.16667L10.8332 9.16667L10.8332 1.75042C10.8332 1.29018 10.4601 0.917086 9.99989 0.917086C9.53965 0.917086 9.16656 1.29018 9.16656 1.75042L9.16656 9.16666L1.75031 9.16666C1.29007 9.16666 0.916976 9.53976 0.916977 10C0.916976 10.4602 1.29007 10.8333 1.75031 10.8333L9.16656 10.8333L9.16656 18.2496C9.16655 18.7098 9.53965 19.0829 9.99989 19.0829C10.4601 19.0829 10.8332 18.7098 10.8332 18.2496L10.8332 10.8333L18.2495 10.8333Z" fill="#212023" stroke="#212023" stroke-width="0.46643" stroke-linecap="round" stroke-linejoin="round"/>
</svg>
