<svg width="26" height="28" viewBox="0 0 26 28" fill="none" xmlns="http://www.w3.org/2000/svg">
<path d="M8.46449 26H4.74518C2.76057 26 1.30436 24.1349 1.7857 22.2096L3.02214 17.2638C3.5314 15.2268 5.36165 13.7978 7.46136 13.7978H18.6193C20.719 13.7978 22.5493 15.2268 23.0585 17.2638L24.295 22.2096C24.7763 24.1349 23.3201 26 21.3355 26H17.6162M13.0404 9.22193C10.9344 9.22193 9.22716 7.5147 9.22716 5.40873C9.22716 3.30276 10.9344 1.59553 13.0404 1.59553C15.1463 1.59553 16.8536 3.30276 16.8536 5.40873C16.8536 7.5147 15.1463 9.22193 13.0404 9.22193Z" stroke="white" stroke-width="2.61476" stroke-linecap="round" stroke-linejoin="round"/>
</svg>
